<?xml version="1.0" encoding="utf-8"?>
<!-- Generator: Adobe Illustrator 17.1.0, SVG Export Plug-In . SVG Version: 6.00 Build 0)  -->
<!DOCTYPE svg PUBLIC "-//W3C//DTD SVG 1.1//EN" "http://www.w3.org/Graphics/SVG/1.1/DTD/svg11.dtd">
<svg version="1.1" id="Layer_1" xmlns="http://www.w3.org/2000/svg" xmlns:xlink="http://www.w3.org/1999/xlink" x="0px" y="0px"
	 viewBox="0 0 960 300" enable-background="new 0 0 960 300" xml:space="preserve">
<g opacity="0.5">
	<g>
		<g>
			<path fill="#80C342" d="M308.8,197v47.8h-47.8V197H308.8 M318.8,187h-67.8v67.8h67.8V187L318.8,187z"/>
		</g>
	</g>
	<g>
		<g>
			<path fill="#46C1F0" d="M222,197v47.8h-47.8V197H222 M232,187h-67.8v67.8H232V187L232,187z"/>
		</g>
	</g>
	<g>
		<g>
			<path fill="#F37444" d="M395.7,197v47.8h-47.8V197H395.7 M405.7,187h-67.8v67.8h67.8V187L405.7,187z"/>
		</g>
	</g>
	<g>
		<path fill="#58595B" d="M164.2,138.7V45.6h6.3v93.1H164.2z"/>
		<path fill="#58595B" d="M195,130.4c-5.8-6.3-8.6-14.7-8.6-25.1c0-10.8,2.9-19.5,8.6-26.1c5.7-6.5,13.2-9.7,22.8-9.7
			c9.4,0,17,3.2,22.8,9.7c5.7,6.6,8.5,15.3,8.5,26.1c0,10.5-2.8,18.8-8.5,25.1c-5.8,6.3-13.4,9.4-22.8,9.4
			C208.3,139.8,200.7,136.7,195,130.4z M236,126.6c4.5-5.3,6.8-12.5,6.8-21.4c0-9.2-2.3-16.5-6.8-22c-4.6-5.5-10.7-8.3-18.2-8.3
			c-7.6,0-13.7,2.8-18.2,8.3c-4.6,5.4-6.9,12.8-6.9,22c0,8.9,2.3,16,6.9,21.4c4.5,5.3,10.6,8,18.2,8
			C225.3,134.6,231.4,132,236,126.6z"/>
		<path fill="#58595B" d="M269.6,131c-6.2-7.1-9.3-15.7-9.3-25.8c0-9.8,3.1-18.3,9.3-25.3c6.2-7,13.7-10.5,22.5-10.5
			c7.2,0,13.4,2.1,18.5,6.4c5.1,4.4,7.7,9.6,7.7,15.7h-6.3c0-4.4-1.9-8.2-5.8-11.3c-3.9-3.1-8.6-4.7-14.1-4.7c-7,0-13,2.9-18.1,8.6
			c-4.9,5.9-7.4,12.9-7.4,21c0,8.4,2.5,15.6,7.4,21.5c5,6,11,9,18.1,9c5.4,0,10.1-1.6,13.8-4.9c3.9-3.2,5.8-7.1,5.8-11.6h6.6
			c0,6.2-2.6,11.5-7.7,15.9c-5.1,4.4-11.3,6.6-18.5,6.6C283.3,141.7,275.8,138.1,269.6,131z"/>
		<path fill="#58595B" d="M333.6,135.6c-4.7-3.8-7.1-8.3-7.1-13.5c0-5,2.3-9.4,6.9-13.2c4.5-3.8,10.2-6,17-6.6
			c6.6-0.6,12-1.7,16.2-3.1c4.3-1.5,6.4-3.2,6.4-5.2v-6c0-3.5-1.9-6.4-5.7-8.8c-3.7-2.4-8.2-3.6-13.5-3.6c-5,0-9.4,1.2-13,3.5
			c-3.6,2.4-5.3,5.2-5.3,8.5V91h-6v-4.1c0-4.5,2.4-8.3,7.1-11.5c4.8-3.1,10.6-4.7,17.3-4.7c6.9,0,12.8,1.5,17.8,4.6
			c4.9,3,7.4,6.7,7.4,11v40.5c0,2.6,0.6,4.9,1.7,6.8c1.2,1.9,2.6,2.8,4.2,2.8c0.5,0,1-0.1,1.4-0.2c0.4-0.1,0.7-0.3,0.9-0.5v3
			c-1.6,0.7-3.6,1.1-6,1.1c-2.4,0-4.5-1-6.3-3.1c-1.7-2.1-2.5-4.6-2.5-7.5c-1.3,3.6-3.9,6.4-8,8.6c-4.1,2.2-8.8,3.3-14.1,3.3
			C343.8,141.1,338.2,139.2,333.6,135.6z M365.1,130.9c4.3-3.6,6.9-8.1,7.9-13.7v-15.4c-1.5,1.3-4.1,2.3-8,3.1
			c-3.7,0.8-8.5,1.5-14.6,2c-4.9,0.4-9.1,2.1-12.4,5c-3.4,2.8-5,6.2-5,10.1c0,4,1.7,7.3,5.2,10.1c3.4,2.8,7.4,4.2,12.3,4.2
			C355.9,136.4,360.9,134.5,365.1,130.9z"/>
		<path fill="#58595B" d="M399.4,138.7V45.6h6.3v93.1H399.4z"/>
	</g>
	<g>
		<path fill="#46C1F0" d="M595.9,163.2c0.4-2.5,0.7-4.5,0.8-5.8c0.1-1.4,0.2-2.7,0.2-3.9c0-7.4-2.4-12.6-7.1-15.8
			c-4.7-3.2-11.7-4.7-21-4.7c-7.4,0-15,1.4-22.9,4.3c-7.9,2.8-14.9,6.5-21,10.9l-14.2-25c8.6-6.1,18.5-10.9,29.5-14.4
			c11.1-3.5,22.4-5.2,33.9-5.2c7.2,0,14.3,0.8,21.3,2.4c7.1,1.6,13.4,4.2,18.9,7.7c5.6,3.6,10.1,8.3,13.4,14.1
			c3.4,5.8,5.1,13,5.1,21.6c0,1.9-0.1,4.2-0.3,6.9c-0.2,2.7-0.5,5.2-0.9,7.3l-11.1,61.6c-1.1,5.9-1.9,12-2.7,18.3
			c-0.7,6.3-1.1,11.6-1.1,15.8h-34.1c0-5.7,0.6-11.7,1.9-18h-0.6c-11.8,14.1-28.2,21.2-49.3,21.2c-5.3,0-10.7-0.6-16.4-1.9
			c-5.7-1.3-10.8-3.4-15.5-6.5c-4.6-3-8.4-7.2-11.4-12.3c-3-5.2-4.4-11.6-4.4-19.4c0-12.4,3.3-22.5,9.9-30.2
			c6.6-7.7,15.2-13.7,25.7-18c10.5-4.3,22.3-7.2,35.2-8.7C570.8,164,583.5,163.2,595.9,163.2z M588,189.8c-7.2,0-14.6,0.3-22.3,0.8
			c-7.7,0.5-14.7,1.7-21.2,3.6c-6.4,1.9-11.7,4.6-15.8,8.1c-4.1,3.5-6.2,8.2-6.2,14.1c0,3.6,0.7,6.6,2.1,9c1.4,2.4,3.2,4.4,5.5,5.8
			c2.3,1.5,4.9,2.5,7.9,3.2c2.9,0.6,6,0.9,9.2,0.9c5.7,0,11-0.9,15.9-2.8c4.9-1.9,9.3-4.5,12.9-7.7c3.7-3.3,6.7-7.1,9.2-11.4
			c2.4-4.3,4.2-9,5.2-14.1l1.9-9.5H588z"/>
		<path fill="#80C342" d="M689.2,132.9c5.3-8.8,11.5-15.9,18.6-21.3c7.2-5.4,15.8-8.1,25.9-8.1c1.5,0,3,0.1,4.7,0.2
			c1.7,0.1,3.2,0.4,4.4,0.8l-4.1,27.9c-0.5,3.4-3.7,5.6-7.1,5.2c0,0,0,0-0.1,0c-1.8-0.2-3.5-0.3-5.2-0.3c-8.6,0-15.7,1.6-21.2,4.7
			c-5.5,3.2-9.9,6.9-13.3,11.4c-3.4,4.4-5.8,9-7.3,13.6c-1.5,4.6-2.4,8.3-2.8,11.1l-13.3,76c-0.5,3-3.1,5.1-6.1,5.1h-24.3
			c-3.9,0-6.8-3.5-6.1-7.3l19.9-111.8c0.8-4,1.7-9.2,2.7-15.5c0.6-4.1,1.1-8,1.5-11.6c0.3-3.1,3-5.5,6.2-5.5h29.1
			c0,1.1-0.1,2.6-0.3,4.7c-0.2,2.1-0.5,4.4-0.8,6.9c-0.3,2.5-0.6,5-0.9,7.4c-0.3,2.4-0.6,4.5-0.8,6.2H689.2z"/>
		<path fill="#F37444" d="M756,107.6l7.6-44.2h36.6l-7.6,44.2h34.1l-5.4,30.3h-33.5l-13.3,70.9c-0.6,3.1-0.9,6.1-0.9,8.8
			c0,5.4,1.6,9.2,4.9,11.3c3.3,2.1,7.6,3.1,13.1,3.1c2.5,0,5-0.2,7.4-0.5s4.7-0.8,6.8-1.4l-2.2,28.1c-3.2,1.3-6.9,2.3-11.2,3
			c-4.3,0.7-8.3,1.1-11.8,1.1c-16,0-27.4-3.2-34.1-9.6c-6.7-6.4-10.1-14.9-10.1-25.4c0-2.9,0.2-6.1,0.5-9.6c0.3-3.5,0.8-6.7,1.4-9.6
			l12.9-70.3L756,107.6z"/>
	</g>
</g>
<linearGradient id="SVGID_1_" gradientUnits="userSpaceOnUse" x1="0" y1="150" x2="960" y2="150" gradientTransform="matrix(-1 0 0 -1 960 300)">
	<stop  offset="0" style="stop-color:#49C1EF;stop-opacity:0.3"/>
	<stop  offset="1" style="stop-color:#7EC242;stop-opacity:0.3"/>
</linearGradient>
<rect opacity="0.4" fill="url(#SVGID_1_)" width="960" height="300"/>
</svg>
