<?xml version="1.0" encoding="utf-8"?>
<!-- Generator: Adobe Illustrator 17.1.0, SVG Export Plug-In . SVG Version: 6.00 Build 0)  -->
<!DOCTYPE svg PUBLIC "-//W3C//DTD SVG 1.1//EN" "http://www.w3.org/Graphics/SVG/1.1/DTD/svg11.dtd">
<svg version="1.1" id="Layer_1" xmlns="http://www.w3.org/2000/svg" xmlns:xlink="http://www.w3.org/1999/xlink" x="0px" y="0px"
	 viewBox="0 0 183.3 183.3" enable-background="new 0 0 183.3 183.3" xml:space="preserve">
<g>
	<g>
		<path fill="#F37444" d="M168.3,15v153.3H15V15H168.3 M183.3,0H0v183.3h183.3V0L183.3,0z"/>
	</g>
</g>
<rect x="0" y="30.3" fill="none" width="183.3" height="49.5"/>
<text transform="matrix(1 0 0 1 27.5495 75.9319)" fill="#58595B" font-family="'ShreeDev0714'" font-size="62">local</text>
<g>
	<path fill="#46C1F0" d="M70.7,119c0.1-0.9,0.2-1.5,0.3-2c0-0.5,0.1-0.9,0.1-1.4c0-2.5-0.8-4.3-2.4-5.4c-1.6-1.1-4-1.6-7.2-1.6
		c-2.5,0-5.2,0.5-7.9,1.5c-2.7,1-5.1,2.2-7.2,3.7l-4.9-8.6c3-2.1,6.4-3.7,10.2-4.9c3.8-1.2,7.7-1.8,11.7-1.8c2.5,0,4.9,0.3,7.3,0.8
		c2.4,0.5,4.6,1.4,6.5,2.7c1.9,1.2,3.5,2.8,4.6,4.8c1.2,2,1.7,4.5,1.7,7.4c0,0.7,0,1.4-0.1,2.4c-0.1,0.9-0.2,1.8-0.3,2.5l-3.8,21.2
		c-0.4,2-0.7,4.1-0.9,6.3c-0.3,2.2-0.4,4-0.4,5.4H66.2c0-2,0.2-4,0.7-6.2h-0.2c-4.1,4.8-9.7,7.3-16.9,7.3c-1.8,0-3.7-0.2-5.6-0.7
		c-2-0.4-3.7-1.2-5.3-2.2c-1.6-1-2.9-2.5-3.9-4.2c-1-1.8-1.5-4-1.5-6.7c0-4.3,1.1-7.7,3.4-10.4c2.3-2.6,5.2-4.7,8.8-6.2
		c3.6-1.5,7.7-2.5,12.1-3C62.1,119.2,66.4,119,70.7,119z M68,128.1c-2.5,0-5,0.1-7.7,0.3c-2.6,0.2-5.1,0.6-7.3,1.2
		c-2.2,0.7-4,1.6-5.4,2.8s-2.1,2.8-2.1,4.8c0,1.2,0.2,2.3,0.7,3.1c0.5,0.8,1.1,1.5,1.9,2c0.8,0.5,1.7,0.9,2.7,1.1
		c1,0.2,2.1,0.3,3.1,0.3c2,0,3.8-0.3,5.5-1c1.7-0.7,3.2-1.5,4.5-2.7c1.3-1.1,2.3-2.4,3.1-3.9c0.8-1.5,1.4-3.1,1.8-4.8l0.7-3.3H68z"
		/>
	<path fill="#80C342" d="M102.8,108.6c1.8-3,3.9-5.5,6.4-7.3c2.5-1.8,5.4-2.8,8.9-2.8c0.5,0,1,0,1.6,0.1c0.6,0,1.1,0.1,1.5,0.3
		l-1.4,9.6c-0.2,1.2-1.3,1.9-2.4,1.8c0,0,0,0,0,0c-0.6-0.1-1.2-0.1-1.8-0.1c-3,0-5.4,0.5-7.3,1.6c-1.9,1.1-3.4,2.4-4.6,3.9
		c-1.2,1.5-2,3.1-2.5,4.7c-0.5,1.6-0.8,2.9-1,3.8l-4.6,26.1c-0.2,1-1.1,1.8-2.1,1.8h-8.4c-1.3,0-2.3-1.2-2.1-2.5l6.8-38.4
		c0.3-1.4,0.6-3.1,0.9-5.3c0.2-1.4,0.4-2.7,0.5-4c0.1-1.1,1-1.9,2.1-1.9h10c0,0.4,0,0.9-0.1,1.6c-0.1,0.7-0.2,1.5-0.3,2.4
		c-0.1,0.9-0.2,1.7-0.3,2.6c-0.1,0.8-0.2,1.5-0.3,2.1H102.8z"/>
	<path fill="#F37444" d="M125.7,99.9l2.6-15.2h12.6l-2.6,15.2h11.7l-1.8,10.4h-11.5l-4.6,24.4c-0.2,1.1-0.3,2.1-0.3,3
		c0,1.9,0.6,3.2,1.7,3.9c1.1,0.7,2.6,1.1,4.5,1.1c0.9,0,1.7-0.1,2.6-0.2c0.8-0.1,1.6-0.3,2.3-0.5l-0.8,9.7c-1.1,0.4-2.4,0.8-3.9,1
		c-1.5,0.3-2.8,0.4-4.1,0.4c-5.5,0-9.4-1.1-11.7-3.3c-2.3-2.2-3.5-5.1-3.5-8.7c0-1,0.1-2.1,0.2-3.3c0.1-1.2,0.3-2.3,0.5-3.3
		l4.5-24.1L125.7,99.9z"/>
</g>
</svg>
